<svg width="112" height="53" viewBox="0 0 112 53" fill="none" xmlns="http://www.w3.org/2000/svg">
<mask id="mask0_251_574" style="mask-type:alpha" maskUnits="userSpaceOnUse" x="57" y="25" width="24" height="23">
<rect x="57.5" y="25.5" width="23" height="22" rx="11" fill="#D9D9D9"/>
</mask>
<g mask="url(#mask0_251_574)">
<rect x="56.543" y="24.584" width="24.9167" height="23.8333" fill="url(#paint0_linear_251_574)"/>
</g>
<g filter="url(#filter0_d_251_574)">
<path d="M11.6355 24.1684C10.1795 24.1684 8.77947 23.9351 7.43547 23.4684C6.11014 22.9831 5.08347 22.3671 4.35547 21.6204L5.16747 20.0244C5.85814 20.6964 6.78214 21.2658 7.93947 21.7324C9.11547 22.1804 10.3475 22.4044 11.6355 22.4044C12.8675 22.4044 13.8661 22.2551 14.6315 21.9564C15.4155 21.6391 15.9848 21.2191 16.3395 20.6964C16.7128 20.1738 16.8995 19.5951 16.8995 18.9604C16.8995 18.1951 16.6755 17.5791 16.2275 17.1124C15.7981 16.6458 15.2288 16.2818 14.5195 16.0204C13.8101 15.7404 13.0261 15.4978 12.1675 15.2924C11.3088 15.0871 10.4501 14.8724 9.59147 14.6484C8.7328 14.4058 7.93947 14.0884 7.21147 13.6964C6.50214 13.3044 5.92347 12.7911 5.47547 12.1564C5.04614 11.5031 4.83147 10.6538 4.83147 9.60842C4.83147 8.63776 5.08347 7.75109 5.58747 6.94842C6.11014 6.12709 6.90347 5.47375 7.96747 4.98842C9.03147 4.48442 10.3941 4.23242 12.0555 4.23242C13.1568 4.23242 14.2488 4.39109 15.3315 4.70842C16.4141 5.00709 17.3475 5.42709 18.1315 5.96842L17.4315 7.62042C16.5915 7.06042 15.6955 6.64976 14.7435 6.38842C13.8101 6.12709 12.9048 5.99642 12.0275 5.99642C10.8515 5.99642 9.8808 6.15509 9.11547 6.47242C8.35014 6.78976 7.7808 7.21909 7.40747 7.76042C7.0528 8.28309 6.87547 8.88042 6.87547 9.55242C6.87547 10.3178 7.09014 10.9338 7.51947 11.4004C7.96747 11.8671 8.54614 12.2311 9.25547 12.4924C9.98347 12.7538 10.7768 12.9871 11.6355 13.1924C12.4941 13.3978 13.3435 13.6218 14.1835 13.8644C15.0421 14.1071 15.8261 14.4244 16.5355 14.8164C17.2635 15.1898 17.8421 15.6938 18.2715 16.3284C18.7195 16.9631 18.9435 17.7938 18.9435 18.8204C18.9435 19.7724 18.6821 20.6591 18.1595 21.4804C17.6368 22.2831 16.8341 22.9364 15.7515 23.4404C14.6875 23.9258 13.3155 24.1684 11.6355 24.1684Z" fill="#131316"/>
<path d="M26.258 24.0004V4.40042H33.594C35.2554 4.40042 36.6834 4.67109 37.878 5.21242C39.0727 5.73509 39.9874 6.50042 40.622 7.50842C41.2754 8.49776 41.602 9.70176 41.602 11.1204C41.602 12.5018 41.2754 13.6964 40.622 14.7044C39.9874 15.6938 39.0727 16.4591 37.878 17.0004C36.6834 17.5418 35.2554 17.8124 33.594 17.8124H27.406L28.33 16.8324V24.0004H26.258ZM28.33 17.0004L27.406 15.9924H33.538C35.498 15.9924 36.982 15.5724 37.99 14.7324C39.0167 13.8738 39.53 12.6698 39.53 11.1204C39.53 9.55242 39.0167 8.33909 37.99 7.48042C36.982 6.62176 35.498 6.19242 33.538 6.19242H27.406L28.33 5.21242V17.0004Z" fill="#131316"/>
<path d="M44.7619 24.0004L53.7219 4.40042H55.7659L64.7259 24.0004H62.5419L54.3099 5.60442H55.1499L46.9179 24.0004H44.7619ZM48.2899 18.7644L48.9059 17.0844H60.3019L60.9179 18.7644H48.2899Z" fill="#131316"/>
<path d="M79.0068 24.1684C77.5321 24.1684 76.1694 23.9258 74.9188 23.4404C73.6681 22.9364 72.5854 22.2364 71.6708 21.3404C70.7561 20.4444 70.0374 19.3898 69.5148 18.1764C69.0108 16.9631 68.7588 15.6378 68.7588 14.2004C68.7588 12.7631 69.0108 11.4378 69.5148 10.2244C70.0374 9.01109 70.7561 7.95642 71.6708 7.06042C72.6041 6.16442 73.6961 5.47375 74.9468 4.98842C76.1974 4.48442 77.5601 4.23242 79.0348 4.23242C80.4534 4.23242 81.7881 4.47509 83.0387 4.96042C84.2894 5.42709 85.3441 6.13642 86.2028 7.08842L84.8867 8.40442C84.0841 7.58309 83.1974 6.99509 82.2268 6.64042C81.2561 6.26709 80.2108 6.08042 79.0908 6.08042C77.9148 6.08042 76.8228 6.28575 75.8148 6.69642C74.8068 7.08842 73.9294 7.65776 73.1828 8.40442C72.4361 9.13242 71.8481 9.99109 71.4188 10.9804C71.0081 11.9511 70.8027 13.0244 70.8027 14.2004C70.8027 15.3764 71.0081 16.4591 71.4188 17.4484C71.8481 18.4191 72.4361 19.2778 73.1828 20.0244C73.9294 20.7524 74.8068 21.3218 75.8148 21.7324C76.8228 22.1244 77.9148 22.3204 79.0908 22.3204C80.2108 22.3204 81.2561 22.1338 82.2268 21.7604C83.1974 21.3871 84.0841 20.7898 84.8867 19.9684L86.2028 21.2844C85.3441 22.2364 84.2894 22.9551 83.0387 23.4404C81.7881 23.9258 80.4441 24.1684 79.0068 24.1684Z" fill="#131316"/>
<path d="M95.2677 13.1644H105.628V14.9284H95.2677V13.1644ZM95.4917 22.2084H107.28V24.0004H93.4197V4.40042H106.86V6.19242H95.4917V22.2084Z" fill="#131316"/>
<path d="M13.2572 48.1924C11.5932 48.1924 9.99322 47.9258 8.45722 47.3924C6.94255 46.8378 5.76922 46.1338 4.93722 45.2804L5.86522 43.4564C6.65455 44.2244 7.71055 44.8751 9.03322 45.4084C10.3772 45.9204 11.7852 46.1764 13.2572 46.1764C14.6652 46.1764 15.8066 46.0058 16.6812 45.6644C17.5772 45.3018 18.2279 44.8218 18.6332 44.2244C19.0599 43.6271 19.2732 42.9658 19.2732 42.2404C19.2732 41.3658 19.0172 40.6618 18.5052 40.1284C18.0146 39.5951 17.3639 39.1791 16.5532 38.8804C15.7426 38.5604 14.8466 38.2831 13.8652 38.0484C12.8839 37.8138 11.9026 37.5684 10.9212 37.3124C9.93988 37.0351 9.03322 36.6724 8.20122 36.2244C7.39055 35.7764 6.72922 35.1898 6.21722 34.4644C5.72655 33.7178 5.48122 32.7471 5.48122 31.5524C5.48122 30.4431 5.76922 29.4298 6.34522 28.5124C6.94255 27.5738 7.84922 26.8271 9.06522 26.2724C10.2812 25.6964 11.8386 25.4084 13.7372 25.4084C14.9959 25.4084 16.2439 25.5898 17.4812 25.9524C18.7186 26.2938 19.7852 26.7738 20.6812 27.3924L19.8812 29.2804C18.9212 28.6404 17.8972 28.1711 16.8092 27.8724C15.7426 27.5738 14.7079 27.4244 13.7052 27.4244C12.3612 27.4244 11.2519 27.6058 10.3772 27.9684C9.50255 28.3311 8.85188 28.8218 8.42522 29.4404C8.01988 30.0378 7.81722 30.7204 7.81722 31.4884C7.81722 32.3631 8.06255 33.0671 8.55322 33.6004C9.06522 34.1338 9.72655 34.5498 10.5372 34.8484C11.3692 35.1471 12.2759 35.4138 13.2572 35.6484C14.2386 35.8831 15.2092 36.1391 16.1692 36.4164C17.1506 36.6938 18.0466 37.0564 18.8572 37.5044C19.6892 37.9311 20.3506 38.5071 20.8412 39.2324C21.3532 39.9578 21.6092 40.9071 21.6092 42.0804C21.6092 43.1684 21.3106 44.1818 20.7132 45.1204C20.1159 46.0378 19.1986 46.7844 17.9612 47.3604C16.7452 47.9151 15.1772 48.1924 13.2572 48.1924Z" fill="#131316"/>
<path d="M46.3527 25.6004H48.6887V48.0004H46.3527V25.6004ZM32.3367 48.0004H29.9687V25.6004H32.3367V48.0004ZM46.5767 37.6644H32.0807V35.5844H46.5767V37.6644Z" fill="#131316"/>
<path d="M68.992 48.1924C67.3066 48.1924 65.7386 47.9151 64.288 47.3604C62.8586 46.7844 61.6106 45.9844 60.544 44.9604C59.4986 43.9151 58.6773 42.7098 58.08 41.3444C57.504 39.9578 57.216 38.4431 57.216 36.8004C57.216 35.1578 57.504 33.6538 58.08 32.2884C58.6773 30.9018 59.4986 29.6964 60.544 28.6724C61.6106 27.6271 62.8586 26.8271 64.288 26.2724C65.7173 25.6964 67.2853 25.4084 68.992 25.4084C70.6773 25.4084 72.2346 25.6964 73.664 26.2724C75.0933 26.8271 76.3306 27.6164 77.376 28.6404C78.4426 29.6644 79.264 30.8698 79.84 32.2564C80.4373 33.6431 80.736 35.1578 80.736 36.8004C80.736 38.4431 80.4373 39.9578 79.84 41.3444C79.264 42.7311 78.4426 43.9364 77.376 44.9604C76.3306 45.9844 75.0933 46.7844 73.664 47.3604C72.2346 47.9151 70.6773 48.1924 68.992 48.1924ZM68.992 46.0804C70.336 46.0804 71.5733 45.8564 72.704 45.4084C73.856 44.9391 74.848 44.2884 75.68 43.4564C76.5333 42.6031 77.1946 41.6218 77.664 40.5124C78.1333 39.3818 78.368 38.1444 78.368 36.8004C78.368 35.4564 78.1333 34.2298 77.664 33.1204C77.1946 31.9898 76.5333 31.0084 75.68 30.1764C74.848 29.3231 73.856 28.6724 72.704 28.2244C71.5733 27.7551 70.336 27.5204 68.992 27.5204C67.648 27.5204 66.4 27.7551 65.248 28.2244C64.096 28.6724 63.0933 29.3231 62.24 30.1764C61.408 31.0084 60.7466 31.9898 60.256 33.1204C59.7866 34.2298 59.552 35.4564 59.552 36.8004C59.552 38.1231 59.7866 39.3498 60.256 40.4804C60.7466 41.6111 61.408 42.6031 62.24 43.4564C63.0933 44.2884 64.096 44.9391 65.248 45.4084C66.4 45.8564 67.648 46.0804 68.992 46.0804Z" fill="#131316"/>
<path d="M89.2437 48.0004V25.6004H97.6277C99.5264 25.6004 101.158 25.9098 102.524 26.5284C103.889 27.1258 104.934 28.0004 105.66 29.1524C106.406 30.2831 106.78 31.6591 106.78 33.2804C106.78 34.8591 106.406 36.2244 105.66 37.3764C104.934 38.5071 103.889 39.3818 102.524 40.0004C101.158 40.6191 99.5264 40.9284 97.6277 40.9284H90.5557L91.6117 39.8084V48.0004H89.2437ZM91.6117 40.0004L90.5557 38.8484H97.5637C99.8037 38.8484 101.5 38.3684 102.652 37.4084C103.825 36.4271 104.412 35.0511 104.412 33.2804C104.412 31.4884 103.825 30.1018 102.652 29.1204C101.5 28.1391 99.8037 27.6484 97.5637 27.6484H90.5557L91.6117 26.5284V40.0004Z" fill="#131316"/>
</g>
<defs>
<filter id="filter0_d_251_574" x="0.355469" y="0.232422" width="110.926" height="51.9609" filterUnits="userSpaceOnUse" color-interpolation-filters="sRGB">
<feFlood flood-opacity="0" result="BackgroundImageFix"/>
<feColorMatrix in="SourceAlpha" type="matrix" values="0 0 0 0 0 0 0 0 0 0 0 0 0 0 0 0 0 0 127 0" result="hardAlpha"/>
<feOffset/>
<feGaussianBlur stdDeviation="2"/>
<feComposite in2="hardAlpha" operator="out"/>
<feColorMatrix type="matrix" values="0 0 0 0 0 0 0 0 0 0 0 0 0 0 0 0 0 0 0.25 0"/>
<feBlend mode="normal" in2="BackgroundImageFix" result="effect1_dropShadow_251_574"/>
<feBlend mode="normal" in="SourceGraphic" in2="effect1_dropShadow_251_574" result="shape"/>
</filter>
<linearGradient id="paint0_linear_251_574" x1="33.7027" y1="68.9736" x2="83.5232" y2="66.4537" gradientUnits="userSpaceOnUse">
<stop stop-color="#801AB3" stop-opacity="0"/>
<stop offset="1" stop-color="#4C4CFF"/>
</linearGradient>
</defs>
</svg>
