<svg width="68" height="68" viewBox="0 0 68 68" fill="none" xmlns="http://www.w3.org/2000/svg">
<circle cx="34" cy="34" r="34" fill="black"/>
<circle cx="33.9984" cy="34.0003" r="25.5882" fill="white"/>
<path d="M33.4802 28.3459C32.2575 28.3459 31.0647 28.7074 30.0485 29.3855C29.0356 30.0635 28.2426 31.028 27.7762 32.1558C27.3097 33.2853 27.1865 34.5264 27.423 35.7242C27.6629 36.922 28.2493 38.0215 29.1156 38.8861C29.9785 39.749 31.078 40.3371 32.2741 40.5753C33.4736 40.8135 34.713 40.6903 35.8425 40.2238C36.972 39.7557 37.9349 38.9644 38.6145 37.9498C39.2909 36.9337 39.6541 35.7409 39.6541 34.5198C39.6541 33.8551 39.5441 33.2004 39.3409 32.5807C39.041 31.6744 38.5312 30.8431 37.8449 30.1551C36.6854 28.999 35.1162 28.3476 33.4802 28.3459Z" fill="black"/>
<path fill-rule="evenodd" clip-rule="evenodd" d="M22.6885 20.7244C23.1517 20.4112 23.6514 20.1547 24.1712 19.9565C24.5144 19.8265 24.8675 19.7232 25.2307 19.6466C25.7138 19.545 26.2102 19.4933 26.7133 19.4933H42.3262C44.2386 19.495 46.0744 20.2547 47.4238 21.609C47.7137 21.8972 47.9769 22.2071 48.2101 22.5369C48.4867 22.9284 48.7232 23.3449 48.9165 23.7797C49.323 24.6943 49.5362 25.6905 49.5362 26.7084V42.3178C49.5362 44.2286 48.7732 46.0611 47.4238 47.4138C46.4876 48.3501 45.3181 49.0031 44.052 49.318C43.4923 49.4562 42.9126 49.5279 42.3262 49.5279H26.7133C24.8009 49.5262 22.9684 48.7649 21.6157 47.4138C21.3292 47.1256 21.0693 46.8174 20.8361 46.4909C20.5495 46.0894 20.3063 45.6596 20.1097 45.2115C19.7132 44.3069 19.5033 43.324 19.5033 42.3178V26.7C19.5033 24.7892 20.2663 22.9567 21.6157 21.6057C21.9455 21.2758 22.3054 20.981 22.6885 20.7244ZM31.0847 43.4873C30.1051 43.2258 29.1722 42.806 28.3226 42.2379C26.7966 41.2167 25.6072 39.7673 24.9042 38.0715C24.4144 36.8937 24.1778 35.6342 24.1978 34.3698C24.2078 33.8151 24.2678 33.2587 24.3778 32.7089C24.601 31.5828 25.0308 30.5133 25.6405 29.5537C26.0037 28.979 26.4301 28.4426 26.9166 27.9561C28.216 26.6584 29.8686 25.7738 31.6677 25.4156C33.4702 25.0574 35.3361 25.2407 37.0319 25.9437C38.7278 26.6467 40.1772 27.8362 41.1967 29.3621C42.2162 30.8898 42.7626 32.6839 42.7626 34.5198C42.756 36.9803 41.7764 39.3375 40.0372 41.0784C38.298 42.8176 35.9391 43.7972 33.4802 43.8022C32.6673 43.8022 31.861 43.6955 31.0847 43.4873ZM45.0216 25.9454C45.2682 25.5789 45.3981 25.1474 45.3981 24.7059C45.3981 24.506 45.3714 24.3061 45.3181 24.1145C45.2948 24.0263 45.2648 23.938 45.2282 23.8513C45.1182 23.5815 44.9516 23.3349 44.7451 23.1283C44.6351 23.0167 44.5118 22.9184 44.3819 22.8335C44.2686 22.7585 44.1487 22.6952 44.0221 22.6436C43.8388 22.5686 43.6456 22.5169 43.449 22.492L43.1691 22.4736C42.726 22.4736 42.2962 22.6036 41.9264 22.8485C41.7631 22.9567 41.6165 23.0867 41.4899 23.2316C41.33 23.4149 41.1967 23.6231 41.1034 23.8497C41.0034 24.0862 40.9468 24.3361 40.9368 24.5893C40.9268 24.7726 40.9401 24.9575 40.9768 25.1391C41.0634 25.5722 41.2733 25.9704 41.5865 26.2835C41.8997 26.5951 42.2962 26.8083 42.7293 26.8949C42.9559 26.9399 43.1858 26.9499 43.4123 26.9249C43.6189 26.9016 43.8221 26.85 44.0187 26.7683C44.3352 26.6367 44.6118 26.4385 44.835 26.1853C44.9017 26.1103 44.965 26.0303 45.0216 25.9454Z" fill="black"/>
<path fill-rule="evenodd" clip-rule="evenodd" d="M34 63C50.016 63 63 50.016 63 34C63 17.984 50.016 5 34 5C17.984 5 5 17.984 5 34C5 50.016 17.984 63 34 63ZM26.7133 52.6431H42.3262C45.0616 52.6398 47.6837 51.5503 49.6195 49.6162C51.5519 47.682 52.6414 45.0599 52.6448 42.3245V26.7084C52.6414 23.9729 51.5519 21.3525 49.6162 19.4184C47.6837 17.4859 45.0616 16.3964 42.3262 16.3931H26.7133C25.4339 16.3948 24.1812 16.633 23.0117 17.0844C21.679 17.5992 20.4529 18.3888 19.4234 19.4184C18.5604 20.2796 17.8641 21.2792 17.3577 22.3637C16.7313 23.7114 16.3981 25.1924 16.3948 26.7084V42.3245C16.3981 45.0599 17.4876 47.682 19.42 49.6162C21.3558 51.5503 23.9779 52.6398 26.7133 52.6431Z" fill="black"/>
</svg>
