<svg width="68" height="68" viewBox="0 0 68 68" fill="none" xmlns="http://www.w3.org/2000/svg">
<circle cx="34" cy="34" r="34" fill="black"/>
<circle cx="33.9978" cy="33.9997" r="24.8571" fill="white"/>
<path fill-rule="evenodd" clip-rule="evenodd" d="M34 5C50.0055 5 63 17.9945 63 34C63 50.0055 50.0055 63 34 63C17.9945 63 5 50.0055 5 34C5 17.9945 17.9945 5 34 5ZM51.3677 25.2749C50.9508 23.7151 49.7226 22.487 48.163 22.0701C45.3357 21.3125 34 21.3125 34 21.3125C34 21.3125 22.6643 21.3125 19.837 22.0701C18.2777 22.487 17.0492 23.7151 16.6323 25.2749C15.875 28.1018 15.875 34.0002 15.875 34.0002C15.875 34.0002 15.875 39.8984 16.6323 42.7251C17.0492 44.2849 18.2777 45.5135 19.837 45.9302C22.6643 46.6875 34 46.6875 34 46.6875C34 46.6875 45.3357 46.6875 48.163 45.9302C49.7226 45.5135 50.9508 44.2849 51.3677 42.7251C52.125 39.8984 52.125 34.0002 52.125 34.0002C52.125 34.0002 52.125 28.1018 51.3677 25.2749ZM30.3749 39.4378V28.5626L39.7927 34.0002L30.3749 39.4378Z" fill="black"/>
</svg>
