<svg width="68" height="68" viewBox="0 0 68 68" fill="none" xmlns="http://www.w3.org/2000/svg">
<circle cx="34" cy="34" r="34" fill="black"/>
<circle cx="33.9995" cy="35.9995" r="23.8824" fill="white"/>
<path fill-rule="evenodd" clip-rule="evenodd" d="M34 64C49.464 64 62 51.464 62 36C62 20.536 49.464 8 34 8C18.536 8 6 20.536 6 36C6 51.464 18.536 64 34 64ZM36.8706 25.5436V28.6896H42.9991L42.5485 33.4242L42.2905 36.4946H36.5785V55.9993H28.8713V36.4946H24.9991V28.6896H28.8371V25.1787C28.8371 21.9636 30.3226 16.9993 36.9359 16.9993H42.9027V23.6812H38.5799C37.8713 23.6812 36.8706 24.0399 36.8706 25.5436Z" fill="black"/>
</svg>
