<svg width="112" height="53" fill="none" xmlns="http://www.w3.org/2000/svg"><mask id="a" style="mask-type:alpha" maskUnits="userSpaceOnUse" x="57" y="25" width="24" height="23"><rect x="57.5" y="25.5" width="23" height="22" rx="11" fill="#D9D9D9"/></mask><g mask="url(#a)"><path fill="url(#b)" d="M56.543 24.584H81.46v23.833H56.543z"/></g><g filter="url(#c)" fill="#131316"><path d="M11.636 24.168a12.7 12.7 0 0 1-4.2-.7c-1.326-.485-2.353-1.1-3.08-1.848l.811-1.596c.691.672 1.615 1.242 2.772 1.708a10.3 10.3 0 0 0 3.697.672c1.232 0 2.23-.149 2.996-.448.784-.317 1.353-.737 1.708-1.26a2.92 2.92 0 0 0 .56-1.736c0-.765-.224-1.38-.672-1.848-.43-.466-1-.83-1.709-1.092a17.51 17.51 0 0 0-2.351-.728 129.43 129.43 0 0 1-2.577-.644 11.728 11.728 0 0 1-2.38-.952 5.123 5.123 0 0 1-1.736-1.54c-.429-.653-.644-1.502-.644-2.548 0-.97.252-1.857.756-2.66.523-.82 1.316-1.474 2.38-1.96 1.064-.504 2.427-.756 4.089-.756 1.1 0 2.193.16 3.276.476 1.082.3 2.015.72 2.8 1.26l-.7 1.652a9.22 9.22 0 0 0-2.688-1.232 10.056 10.056 0 0 0-2.716-.392c-1.177 0-2.147.16-2.913.476-.765.318-1.334.747-1.708 1.288a3.116 3.116 0 0 0-.532 1.792c0 .766.215 1.382.644 1.848.448.467 1.027.831 1.736 1.092.728.262 1.522.495 2.38.7.86.206 1.709.43 2.549.672.858.243 1.642.56 2.351.952a4.567 4.567 0 0 1 1.736 1.512c.448.635.672 1.466.672 2.492 0 .952-.26 1.84-.784 2.66-.522.803-1.325 1.456-2.407 1.96-1.065.486-2.437.728-4.117.728ZM26.258 24V4.4h7.336c1.661 0 3.09.271 4.284.812 1.195.523 2.11 1.288 2.744 2.296.653.99.98 2.194.98 3.612 0 1.382-.327 2.576-.98 3.584-.635.99-1.55 1.755-2.744 2.296-1.195.542-2.623.812-4.284.812h-6.188l.924-.98V24h-2.072Zm2.072-7-.924-1.008h6.132c1.96 0 3.444-.42 4.452-1.26 1.027-.858 1.54-2.062 1.54-3.612 0-1.568-.513-2.78-1.54-3.64-1.008-.858-2.492-1.288-4.452-1.288h-6.132l.924-.98V17Zm16.432 7 8.96-19.6h2.044l8.96 19.6h-2.184L54.31 5.604h.84L46.918 24h-2.156Zm3.528-5.236.616-1.68h11.396l.616 1.68H48.29Zm30.717 5.404c-1.475 0-2.838-.242-4.088-.728a9.84 9.84 0 0 1-3.248-2.1 9.813 9.813 0 0 1-2.156-3.164c-.504-1.213-.756-2.538-.756-3.976 0-1.437.252-2.762.756-3.976A9.814 9.814 0 0 1 71.67 7.06a9.788 9.788 0 0 1 3.276-2.072c1.25-.504 2.613-.756 4.088-.756 1.418 0 2.753.243 4.004.728a7.914 7.914 0 0 1 3.164 2.128l-1.316 1.316c-.803-.82-1.69-1.409-2.66-1.764a8.661 8.661 0 0 0-3.136-.56c-1.176 0-2.268.206-3.276.616a7.544 7.544 0 0 0-2.632 1.708 8.01 8.01 0 0 0-1.764 2.576c-.41.971-.616 2.044-.616 3.22 0 1.176.205 2.26.616 3.248a8.432 8.432 0 0 0 1.764 2.576 8.108 8.108 0 0 0 2.632 1.708c1.008.392 2.1.588 3.276.588a8.66 8.66 0 0 0 3.136-.56c.97-.373 1.857-.97 2.66-1.792l1.316 1.316c-.859.952-1.914 1.671-3.164 2.156-1.25.486-2.595.728-4.032.728Zm16.261-11.004h10.36v1.764h-10.36v-1.764Zm.224 9.044h11.788V24H93.42V4.4h13.44v1.792H95.492v16.016ZM13.257 48.192c-1.664 0-3.264-.266-4.8-.8-1.514-.554-2.688-1.258-3.52-2.112l.928-1.824c.79.768 1.846 1.42 3.168 1.952 1.344.512 2.752.768 4.224.768 1.408 0 2.55-.17 3.424-.512.896-.362 1.547-.842 1.952-1.44.427-.597.64-1.258.64-1.984 0-.874-.256-1.578-.768-2.112-.49-.533-1.141-.949-1.952-1.248-.81-.32-1.706-.597-2.688-.832a148.03 148.03 0 0 1-2.944-.736 13.406 13.406 0 0 1-2.72-1.088 5.854 5.854 0 0 1-1.984-1.76c-.49-.746-.736-1.717-.736-2.912 0-1.109.288-2.122.864-3.04.598-.938 1.504-1.685 2.72-2.24 1.216-.576 2.774-.864 4.672-.864 1.259 0 2.507.182 3.744.544 1.238.342 2.304.822 3.2 1.44l-.8 1.888a10.545 10.545 0 0 0-3.072-1.408 11.493 11.493 0 0 0-3.104-.448c-1.344 0-2.453.182-3.328.544-.874.363-1.525.854-1.952 1.472-.405.598-.608 1.28-.608 2.048 0 .875.246 1.58.736 2.112.512.534 1.174.95 1.984 1.248.832.3 1.739.566 2.72.8.982.235 1.952.491 2.912.768.982.278 1.878.64 2.688 1.088.832.427 1.494 1.003 1.984 1.728.512.726.768 1.675.768 2.848a5.557 5.557 0 0 1-.896 3.04c-.597.918-1.514 1.664-2.752 2.24-1.216.555-2.784.832-4.704.832ZM46.353 25.6h2.336V48h-2.336V25.6ZM32.337 48h-2.368V25.6h2.368V48Zm14.24-10.336H32.08v-2.08h14.496v2.08Zm22.415 10.528c-1.685 0-3.253-.277-4.704-.832a11.612 11.612 0 0 1-3.744-2.4 11.696 11.696 0 0 1-2.464-3.616c-.576-1.386-.864-2.9-.864-4.544 0-1.642.288-3.146.864-4.512a11.217 11.217 0 0 1 2.464-3.616 10.942 10.942 0 0 1 3.744-2.4c1.43-.576 2.997-.864 4.704-.864 1.685 0 3.243.288 4.672.864a10.844 10.844 0 0 1 3.712 2.368 10.584 10.584 0 0 1 2.464 3.616c.597 1.387.896 2.902.896 4.544 0 1.643-.299 3.158-.896 4.544a10.583 10.583 0 0 1-2.464 3.616c-1.045 1.024-2.283 1.824-3.712 2.4-1.43.555-2.987.832-4.672.832Zm0-2.112c1.344 0 2.581-.224 3.712-.672a8.907 8.907 0 0 0 2.976-1.952 9.19 9.19 0 0 0 1.984-2.944c.47-1.13.704-2.368.704-3.712 0-1.344-.235-2.57-.704-3.68a8.749 8.749 0 0 0-1.984-2.944 8.304 8.304 0 0 0-2.976-1.952c-1.13-.469-2.368-.704-3.712-.704-1.344 0-2.592.235-3.744.704a8.622 8.622 0 0 0-3.008 1.952 9.42 9.42 0 0 0-1.984 2.944c-.47 1.11-.704 2.336-.704 3.68 0 1.323.235 2.55.704 3.68a9.819 9.819 0 0 0 1.984 2.976 9.267 9.267 0 0 0 3.008 1.952c1.152.448 2.4.672 3.744.672ZM89.244 48V25.6h8.384c1.898 0 3.53.31 4.896.928 1.365.598 2.41 1.472 3.136 2.624.746 1.131 1.12 2.507 1.12 4.128 0 1.58-.374 2.944-1.12 4.096-.726 1.131-1.771 2.006-3.136 2.624-1.366.62-2.998.928-4.896.928h-7.072l1.056-1.12V48h-2.368Zm2.368-8-1.056-1.152h7.008c2.24 0 3.936-.48 5.088-1.44 1.173-.98 1.76-2.357 1.76-4.128 0-1.792-.587-3.178-1.76-4.16-1.152-.98-2.848-1.472-5.088-1.472h-7.008l1.056-1.12V40Z"/></g><defs><linearGradient id="b" x1="33.703" y1="68.974" x2="83.523" y2="66.454" gradientUnits="userSpaceOnUse"><stop stop-color="#801AB3" stop-opacity="0"/><stop offset="1" stop-color="#4C4CFF"/></linearGradient><filter id="c" x=".355" y=".232" width="110.926" height="51.961" filterUnits="userSpaceOnUse" color-interpolation-filters="sRGB"><feFlood flood-opacity="0" result="BackgroundImageFix"/><feColorMatrix in="SourceAlpha" values="0 0 0 0 0 0 0 0 0 0 0 0 0 0 0 0 0 0 127 0" result="hardAlpha"/><feOffset/><feGaussianBlur stdDeviation="2"/><feComposite in2="hardAlpha" operator="out"/><feColorMatrix values="0 0 0 0 0 0 0 0 0 0 0 0 0 0 0 0 0 0 0.25 0"/><feBlend in2="BackgroundImageFix" result="effect1_dropShadow_251_574"/><feBlend in="SourceGraphic" in2="effect1_dropShadow_251_574" result="shape"/></filter></defs></svg>